<?xml version="1.0" encoding="utf-8"?>
<!-- Generator: Adobe Illustrator 17.0.0, SVG Export Plug-In . SVG Version: 6.00 Build 0)  -->
<!DOCTYPE svg PUBLIC "-//W3C//DTD SVG 1.1//EN" "http://www.w3.org/Graphics/SVG/1.1/DTD/svg11.dtd">
<svg version="1.1" id="Layer_1" xmlns="http://www.w3.org/2000/svg" xmlns:xlink="http://www.w3.org/1999/xlink" x="0px" y="0px"
	 width="85.039px" height="85.039px" viewBox="277.48 525.48 85.039 85.039" enable-background="new 277.48 525.48 85.039 85.039"
	 xml:space="preserve">
<g>
	<path fill="#FFFFFF" d="M354.155,569.255h-3.067c-1.673,0-1.673-2.509,0-2.509h3.067
		C355.828,566.745,355.828,569.255,354.155,569.255z M316.515,567.024h-13.383c-1.394,0-1.394,2.231,0,2.231h13.383
		c0.558,1.394,1.952,2.509,3.625,2.509c1.952,0,3.625-1.673,3.625-3.625c0-1.673-1.115-3.067-2.509-3.625v-20.633
		c0-1.394-2.231-1.394-2.231,0v20.633C317.909,565.072,317.072,565.909,316.515,567.024z M320.139,525.48
		c-23.699,0-42.659,18.96-42.659,42.659c0,23.421,18.96,42.38,42.659,42.38c23.421,0,42.38-18.96,42.38-42.38
		C362.52,544.44,343.56,525.48,320.139,525.48z M320.139,529.384c21.469,0,38.756,17.287,38.756,38.756
		c0,21.469-17.287,38.756-38.756,38.756s-38.756-17.287-38.756-38.756C281.384,546.67,298.67,529.384,320.139,529.384z
		 M320.139,566.188c0.836,0,1.673,0.836,1.673,1.952c0,0.836-0.836,1.673-1.673,1.673c-1.115,0-1.952-0.836-1.952-1.673
		C318.188,567.024,319.024,566.188,320.139,566.188z M296.719,543.046l2.231,2.231c1.115,1.115-0.558,2.788-1.673,1.673
		l-2.231-2.231C293.931,543.603,295.603,541.931,296.719,543.046z M344.954,544.719l-2.231,2.231
		c-1.115,1.115-2.788-0.558-1.673-1.673l2.231-2.231C344.397,541.931,346.348,543.603,344.954,544.719z M318.745,533.845v3.346
		c0,1.394,2.509,1.394,2.509,0v-3.346C321.255,532.172,318.745,532.172,318.745,533.845z M296.719,592.954l2.231-2.231
		c1.115-1.115-0.558-2.788-1.673-1.673l-2.231,2.231C293.931,592.396,295.603,594.348,296.719,592.954z M285.845,569.255h3.346
		c1.394,0,1.394-2.509,0-2.509h-3.346C284.172,566.745,284.172,569.255,285.845,569.255z M344.954,591.281l-2.231-2.231
		c-1.115-1.115-2.788,0.558-1.673,1.673l2.231,2.231C344.397,594.348,346.348,592.396,344.954,591.281z M318.745,602.155v-3.067
		c0-1.673,2.509-1.673,2.509,0v3.067C321.255,603.828,318.745,603.828,318.745,602.155z"/>
</g>
</svg>
