<?xml version="1.0" encoding="utf-8"?>
<!-- Generator: Adobe Illustrator 17.0.0, SVG Export Plug-In . SVG Version: 6.00 Build 0)  -->
<!DOCTYPE svg PUBLIC "-//W3C//DTD SVG 1.1//EN" "http://www.w3.org/Graphics/SVG/1.1/DTD/svg11.dtd">
<svg version="1.1" id="Layer_1" xmlns="http://www.w3.org/2000/svg" xmlns:xlink="http://www.w3.org/1999/xlink" x="0px" y="0px"
	 width="85.039px" height="85.039px" viewBox="277.48 640.48 85.039 85.039" enable-background="new 277.48 640.48 85.039 85.039"
	 xml:space="preserve">
<g>
	<polygon fill="#FFFFFF" points="326.089,684.968 322.063,684.968 322.063,693.055 326.089,693.055 326.089,701.172 
		322.063,701.172 322.063,705.112 326.089,705.112 326.089,709.262 309.937,709.262 309.937,713.296 313.92,713.296 313.92,717.364 
		318.033,717.364 318.033,725.404 322.005,725.404 322.005,717.364 326.074,717.364 326.074,713.296 330.086,713.296 
		330.08,709.262 330.08,689.079 326.089,689.079 	"/>
	<rect x="326.074" y="717.364" fill="#FFFFFF" width="4.009" height="8.036"/>
	<rect x="318.006" y="693.055" fill="#FFFFFF" width="4.058" height="8.117"/>
	<rect x="309.937" y="693.063" fill="#FFFFFF" width="3.94" height="12.035"/>
	<rect x="301.79" y="689.037" fill="#FFFFFF" width="4.021" height="4.016"/>
	<polygon fill="#FFFFFF" points="305.81,680.869 301.794,680.869 301.794,684.954 305.81,684.954 305.81,689.037 309.888,689.037 
		309.888,684.931 305.81,684.931 	"/>
	<polygon fill="#FFFFFF" points="313.902,668.766 309.911,668.766 309.911,672.833 301.804,672.833 301.804,676.861 305.81,676.861 
		305.81,680.869 309.888,680.869 309.888,684.931 317.991,684.931 317.991,680.869 313.92,680.869 313.92,676.861 322.03,676.861 
		322.03,672.833 313.902,672.833 	"/>
	<polygon fill="#FFFFFF" points="334.199,668.778 330.119,668.778 330.119,672.833 326.049,672.833 326.049,676.844 
		330.119,676.844 330.119,680.872 334.199,680.872 	"/>
	<rect x="322.03" y="668.776" fill="#FFFFFF" width="4.02" height="4.058"/>
	<rect x="313.902" y="664.77" fill="#FFFFFF" width="4.084" height="3.996"/>
	<polygon fill="#FFFFFF" points="322.022,660.681 326.008,660.681 326.008,656.626 317.986,656.626 317.986,652.567 
		313.925,652.567 313.925,660.681 317.986,660.681 317.986,664.77 322.022,664.77 	"/>
	<rect x="309.913" y="644.476" fill="#FFFFFF" width="4.012" height="8.09"/>
	<polygon fill="#FFFFFF" points="318.021,648.478 322.002,648.478 322.002,640.48 313.925,640.48 313.925,644.476 318.021,644.476 	
		"/>
	<rect x="326.025" y="644.516" fill="#FFFFFF" width="4.089" height="4.005"/>
	<rect x="330.114" y="640.484" fill="#FFFFFF" width="12.094" height="4.03"/>
	<polygon fill="#FFFFFF" points="350.329,640.48 350.329,644.535 358.423,644.535 358.423,648.534 350.329,648.534 350.329,644.535 
		346.316,644.535 346.316,648.521 330.114,648.521 330.114,652.532 342.242,652.532 342.242,656.616 330.13,656.616 330.13,660.681 
		342.242,660.681 342.242,664.768 338.253,664.768 338.253,672.8 342.242,672.8 342.242,668.785 350.336,668.785 350.336,664.768 
		346.316,664.768 346.316,660.681 350.314,660.681 350.314,656.616 346.316,656.616 346.316,652.532 362.444,652.532 
		362.434,648.534 362.434,640.48 	"/>
	<rect x="326.008" y="660.681" fill="#FFFFFF" width="4.12" height="4.074"/>
	<polygon fill="#FFFFFF" points="354.375,672.804 354.375,676.844 358.476,676.844 358.476,684.924 354.383,684.924 
		354.383,689.015 362.474,689.015 362.474,672.804 358.415,672.804 358.415,668.785 350.336,668.785 350.336,672.804 	"/>
	<rect x="350.327" y="676.844" fill="#FFFFFF" width="4.048" height="4.011"/>
	<polygon fill="#FFFFFF" points="362.42,656.614 354.452,656.614 354.452,660.654 358.415,660.654 358.415,668.785 362.42,668.785 	
		"/>
	<rect x="342.242" y="672.8" fill="#FFFFFF" width="4.081" height="8.071"/>
	<polygon fill="#FFFFFF" points="334.227,684.968 338.233,684.968 338.233,689.079 334.227,689.079 334.227,693.035 
		342.234,693.035 342.234,689.079 346.279,689.079 346.314,689.079 346.314,693.03 350.325,693.03 350.325,684.978 346.279,684.978 
		342.242,684.978 342.242,680.872 334.227,680.872 	"/>
	<polygon fill="#FFFFFF" points="330.119,684.968 330.119,680.872 326.089,680.872 326.089,684.968 330.08,684.968 330.08,689.079 
		334.227,689.079 334.227,684.968 	"/>
	<path fill="#FFFFFF" d="M334.232,697.176v28.24h4.08h24.208v-28.24h-3.915H334.232z M358.605,721.39h-20.292v-20.297h20.293v20.297
		H358.605z"/>
	<rect x="342.337" y="705.136" fill="#FFFFFF" width="12.187" height="12.183"/>
	<path fill="#FFFFFF" d="M305.768,697.176H277.48v28.24h28.288V697.176z M301.853,721.39h-20.295v-20.297h20.295V721.39z"/>
	<rect x="285.585" y="705.136" fill="#FFFFFF" width="12.187" height="12.183"/>
	<polygon fill="#FFFFFF" points="289.594,693.035 289.594,689.034 297.756,689.034 297.756,684.941 289.545,684.941 
		289.545,680.823 297.683,680.823 297.683,672.877 277.5,672.877 277.5,676.836 285.58,676.836 285.58,680.823 285.58,689.034 
		281.564,689.034 281.564,693.035 	"/>
	<rect x="277.488" y="684.956" fill="#FFFFFF" width="4.076" height="4.079"/>
	<path fill="#FFFFFF" d="M305.768,640.515H277.48v28.242h28.288V640.515z M301.853,664.73h-20.295v-20.296h20.295V664.73z"/>
	<path fill="#FFFFFF" d="M297.772,648.478h-12.187v12.183h12.187V648.478z M294.417,657.306h-5.477v-5.474h5.477V657.306z"/>
</g>
</svg>
